<?xml version="1.0" standalone="no"?>
<!DOCTYPE svg PUBLIC "-//W3C//DTD SVG 1.1//EN" "http://www.w3.org/Graphics/SVG/1.1/DTD/svg11.dtd" >
<svg xmlns="http://www.w3.org/2000/svg">
<metadata>
This is a custom SVG webfont generated by Font Squirrel.
Copyright   : Copyright c 2009 by Sander Baumann All rights reserved
Designer    : Sander Baumann
Foundry     : Sander Baumann
</metadata>
<defs>
<font id="webfontigNoCmlS" horiz-adv-x="1705" >
<font-face units-per-em="2048" ascent="1536" descent="-512" />
<missing-glyph horiz-adv-x="1024" />
<glyph unicode=" "  horiz-adv-x="1024" />
<glyph unicode="&#x09;" horiz-adv-x="1024" />
<glyph unicode="&#xa0;" horiz-adv-x="1024" />
<glyph unicode="A" d="M0 721q0 297 211 508t510 211q301 0 508 -211q211 -207 211 -508q0 -299 -211 -510t-508 -211q-295 0 -510 211q-211 215 -211 510zM162 721q0 -233 163.5 -397t395.5 -164q182 0 330 108l-783 783q-106 -146 -106 -330zM326 985h32q16 -45 35 -133h45l211 -211 q-49 12 -80 12l-22 -64q-18 -52 -22.5 -72.5t-10.5 -60.5q-2 -16 -2 -31q0 -22 5 -40q9 -31 30 -63q-20 -9 -37 -9q-39 0 -59 47q-19 45 -20 92q0 23 5 48q-25 -9 -25 -62q0 -20 4 -47q13 -96 11 -102q-55 2 -78 32q-19 25 -19 53q0 5 1 10q4 34 16 86t12 73q1 15 1 32 q0 78 -15 202q-18 153 -18 208zM397 1178l781 -781q102 150 102 324q0 227 -164 395q-168 164 -395 164q-174 0 -324 -102zM752 852q68 12 104 55q25 -6 65 -41t80 -35q4 -23 4 -53q0 -65 -18 -162zM819 471l60 -59q0 -47 32 -58v27l64 -66q-8 0 -65 13q-23 5 -41 5 q-28 0 -46 -11q-11 26 -11 69q0 34 7 80zM901 942q14 33 61.5 89t59.5 97h35q20 -156 153 -165q2 -15 3 -27q0 -34 -17 -49q-23 -20 -56 -17q-23 3 -47 3q-12 0 -24 -1q-37 -2 -47 -20q-6 4 -22.5 12t-23.5 13l-21 12q-13 8 -21 15t-17.5 17.5t-15.5 20.5z" />
<glyph unicode="B" d="M1 577q5 22 22 44l473 473q32 21 72 21q19 0 40 -5q8 8 18.5 21.5t19.5 23.5t18 16q10 6 22 9.5t20 2.5l21 -3q14 -2 21 -2q63 61 145 71q8 0 28.5 -2t22.5 2l12 13l13 12q36 26 77 26q43 0 91 -28q6 -8 22 -25q30 -48 30 -91q0 -27 -11 -52q-4 -8 -16.5 -23.5 t-16.5 -23.5q-4 -10 -2 -35t0 -41q-10 -76 -70 -131q7 -14 7 -30q0 -20 -12 -43q-22 -40 -67 -66q1 -9 1 -18q0 -53 -21 -85l-473 -473q-39 -24 -74 -23.5t-65 23.5q-27 18 -53.5 45t-62.5 68t-56 61l-50 46l-49 47q-18 17 -41.5 43t-34 45.5t-18.5 41.5q-5 14 -5 28 q0 9 2 17zM68 549q2 -20 77 -96l195 -195q76 -76 96 -78q10 0 23.5 7.5t27.5 20.5l27 25l28 29l21 23l256 256q6 6 41 37.5t53.5 53t22.5 38.5q2 10 -2 21t-13.5 23.5t-19.5 21.5l-25 24l-24 22l-172 172q-10 10 -27.5 30t-32 34t-26.5 22q-10 6 -22.5 7.5t-20.5 -2 t-22.5 -15.5t-22.5 -20l-27 -27l28 -27l30 -28q12 -12 22 -25.5t9 -26t-13 -22.5q-18 -14 -38.5 0t-45.5 44t-39 38l-90 -92q8 -10 25 -26l28 -26q12 -11 24.5 -26.5t10.5 -25t-10 -23.5q-14 -8 -23.5 -9t-25 11t-25.5 23l-27 29q-16 17 -26 26l-96 -97q8 -10 25 -26l29 -27 q11 -10 23.5 -25.5t11.5 -24.5t-10 -24q-14 -8 -23 -9t-24.5 11.5t-25.5 23.5l-27 29q-16 17 -26 25q-10 -12 -34 -33.5t-36 -38t-12 -32.5zM801 1133l229 -230q45 48 45 118q0 29 -8 62q45 27 52 68q1 7 1 13q0 32 -30 55q-17 12 -37 12q-13 0 -26 -5q-34 -13 -54 -50 q-21 4 -44 4q-20 0 -42 -3q-47 -7 -86 -44z" />
<glyph unicode="C" d="M0 719q0 299 211 510t510 211t509 -211t210 -510q0 -297 -210 -508t-509 -211t-510 211t-211 508zM88 719q0 -262 184 -447q190 -186 449 -186q260 0 446 186q186 182 187 447q0 266 -187 448q-184 184 -446 185q-260 0 -449 -185q-184 -184 -184 -448zM315 901v39h33v45 h-33v39h41q18 72 75.5 117t133.5 45l64 -6l-15 -58q-23 8 -49 8q-109 0 -143 -106h174l-8 -39h-174q-6 -20 -2 -45h168l-9 -39h-149q35 -109 145 -108l58 8l10 -58q-29 -10 -70 -10q-78 0 -135 47t-74 121h-41zM340 338q-8 7 -8 14.5t8 16.5l733 733q7 5 14 5l15 -5 q8 -8 8 -16t-8 -15l-733 -733q-6 -6 -14.5 -6t-14.5 6zM782 334l33 47q47 -47 113 -47q33 0 54.5 17.5t21.5 47.5q0 29 -34 51.5t-74 37t-74 45t-34 75.5t33 79t84 42v57h43v-57q31 -2 57.5 -13t38.5 -20l11 -10l-29 -51q-39 39 -96 39q-35 0 -57.5 -19.5t-22.5 -46.5 q0 -29 34 -49t73.5 -33.5t73.5 -46.5t34 -80t-32 -80.5t-85 -39.5v-58h-43v58q-35 4 -65.5 17t-44.5 26z" />
<glyph unicode="D" d="M-51 537l112 112l398 -399v938h155v-938l400 399l110 -112l-587 -588z" />
<glyph unicode="E" d="M0 721q0 297 211 508t510 211t509 -210t210 -509t-211 -510t-508 -211q-299 0 -510 211t-211 510zM88 721q0 -260 184 -449q188 -184 449 -184q262 0 446 184q186 186 187 449q0 264 -187 446q-182 186 -446 187q-262 0 -449 -187q-184 -184 -184 -446zM219 489v58h1012 v-58h-1012zM219 592v360h225v-75h-137v-66h109v-76h-109v-67h144v-76h-232zM475 592l109 178l-109 182h98l41 -73l21 -48h2q10 25 22 48l39 73h101l-111 -182l111 -178h-99l-41 76l-22 45h-2q-8 -23 -21 -45l-43 -76h-96zM831 592v360h89v-360h-89zM950 877v75h305v-75h-108 v-285h-88v285h-109z" />
<glyph unicode="F" horiz-adv-x="1126" d="M4 758l172 473q12 33 46 56.5t69 23.5h198q35 0 69 -23.5t44 -56.5l174 -473q1 -6 1 -11q0 -20 -19 -28l-37 -12q-29 -10 -37 16l-141 385v-68l114 -391q-47 -29 -106 -39q-18 -2 -53 -2q-70 0 -156 21q-33 8 -98 30q-4 2 -86 39q-6 4 -19 9l97 333v68l-140 -385 q-12 -27 -37 -16l-39 14q-19 6 -19 22q0 7 3 15zM84 518l47 162l12 -6q197 -86 355 -86h2q98 0 166 33l28 -103h-207v-489q0 -29 -28 -29h-41q-25 0 -29 25q0 -25 -29 -25h-38q-31 0 -31 29v489h-207zM268 1468.5q0 49.5 35 84t84 34.5t84 -34.5t35 -84t-35 -84t-84 -34.5 t-84 34.5t-35 84z" />
<glyph unicode="G" d="M0 498q256 129 580 135v110v66h36q29 0 49.5 20.5t20.5 49t-20.5 50t-49.5 21.5q-37 0 -57 -30l-59 41q43 59 116 59q59 0 100.5 -41t41.5 -100q0 -49 -31 -87t-78 -51v-108q328 -6 578 -139l-31 -64q-260 125 -586 125q-322 0 -573 -121z" />
<glyph unicode="H" d="M0 719q0 299 211 510t510 211q297 0 508 -211t211 -510q0 -297 -210 -508t-509 -211t-510 210t-211 509zM88 719q0 -262 184 -447q186 -186 449 -186q260 0 446.5 186.5t186.5 446.5q0 258 -187 448q-184 184 -446 185q-264 0 -449 -185q-184 -188 -184 -448zM246 627 v186h381v381h186v-381h381v-186h-381v-381h-186v381h-381zM332 287v295h108q100 0 101 -78q0 -43 -35 -62v-2q47 -14 47 -65q0 -88 -113 -88h-108zM346 854v295h184v-62h-112v-53h90v-61h-90v-58h119v-61h-191zM403 348h43q33 0 33 31t-33 31h-43v-62zM403 467h37 q27 0 27 29q0 25 -27 24h-37v-53zM866 436q0 63 43 106.5t110.5 43.5t111 -43t43.5 -107q0 -66 -43.5 -109.5t-111 -43.5t-110.5 43.5t-43 109.5zM893 854v295h74v-117h106v117h72v-295h-72v117h-106v-117h-74zM940 436q0 -39 22.5 -63.5t57.5 -24.5t57.5 24.5t22.5 63.5 q0 35 -23.5 59.5t-56.5 24.5t-56.5 -24.5t-23.5 -59.5z" />
<glyph unicode="I" d="M0 719q0 299 211 510t508 211t509 -212t212 -509t-211 -508t-510 -211q-297 0 -508 211t-211 508zM86 719q0 -264 186 -447q182 -186 447 -186q262 0 448 186q184 184 184.5 446.5t-184.5 446.5q-186 186 -448 187q-264 0 -447 -187q-186 -182 -186 -446zM635 270v670 h168v-670h-168zM635 1053v149h166v-149h-166z" />
<glyph unicode="J" d="M2 1036q-1 17 -1 33q0 65 13 119q16 68 38 99.5t42 47.5l215 -368q-28 -17 -27 -57q0 -43 31 -111q61 -139 150 -258q66 -88 100 -117q20 -17 41 -17l29 9l209 -359q-23 -14 -63 -17h-11q-38 0 -98 17q-70 20 -144.5 68.5t-169 157t-182.5 264.5q-84 147 -126 276 t-46 213zM123 1352l102 59q10 7 22 7q6 0 12 -2q19 -5 28 -21l168 -289q10 -14 6 -33.5t-23 -30.5l-100 -59zM659 432l103 60q14 8 26 8q21 0 37 -25l162 -278q9 -16 9 -29q0 -22 -25 -35l-101 -59z" />
<glyph unicode="K" d="M0 719q0 299 210 510t509 211t510 -211t211 -510q0 -297 -211 -508t-510 -211q-297 0 -508 211t-211 508zM86 719q0 -264 186 -447q186 -186 447 -186q258 0 448 186q184 184 185 447q0 264 -185 448q-188 184 -448 185q-262 0 -447 -185q-186 -182 -186 -448zM416 217 h241v307h170q143 0 233.5 96.5t90.5 247.5q0 150 -90 246t-234 96h-411v-993zM657 733v268h125q59 0 90 -35.5t31 -97t-31.5 -98.5t-93.5 -37h-121z" />
<glyph unicode="L" d="M0 537l588 587l112 -112l-399 -398h938v-155h-938l399 -400l-112 -110z" />
<glyph unicode="M" horiz-adv-x="1126" d="M0 725v500h2q2 35 36 60.5t79 25.5h303q45 0 77.5 -22.5t37.5 -57.5v-506q0 -10 -8.5 -19.5t-20.5 -9.5h-39q-12 0 -21.5 9.5t-9.5 19.5v403h-20v-340h-295v340h-23v-403q0 -10 -8 -19.5t-20 -9.5h-39q-12 0 -21.5 9.5t-9.5 19.5zM121 29v739h295v-739q0 -12 -9.5 -20.5 t-19.5 -8.5h-65q-29 0 -29 29v647h-49v-647q0 -29 -29 -29h-65q-29 0 -29 29zM147 1468.5q0 49.5 35 84t84 34.5t84 -34.5t35 -84t-35 -84t-84 -34.5t-84 34.5t-35 84z" />
<glyph unicode="N" d="M0 721q0 297 211 508t510 211q301 0 508 -211q211 -207 211 -508q0 -299 -211 -510t-508 -211q-295 0 -510 211q-211 215 -211 510zM162 721q0 -236 164 -395q160 -164 395 -164q186 0 330 108l-301 301h-504v129h375l-353 351q-106 -146 -106 -330zM397 1178l477 -478 h179v-129h-49l174 -174q102 150 102 324q0 227 -164 395q-168 164 -395 164q-174 0 -324 -102zM672 1106q0 49 28 86q35 45 101 45v-43q-43 0 -66 -29q-20 -23 -20 -59q0 -35 24 -59q23 -27 74 -27h8q12 0 19 -10q8 -14 2 -23q-10 -16 -11 -35q0 -25 17 -45q12 -18 41 -18 h115q53 0 86 -29q31 -29 30 -78v-57h-43v57q0 33 -18 45q-18 18 -55 19h-115q-47 0 -76 35q-25 31 -25 71q0 16 3 25q-53 6 -84 41q-35 39 -35 88zM838 1151v45q66 0 108 -43q43 -39 43 -100q0 -25 -14 -62h31q80 0 133 -59q49 -51 49 -129v-78h-43v78q0 57 -37 100 q-41 45 -102 45h-68q-14 0 -20 13q-4 12 2 22q27 33 26 70q-2 41 -30.5 69.5t-77.5 28.5zM1077 571v131h43v-131h-43zM1145 571v131h43v-131h-43z" />
<glyph unicode="O" d="M0 719q0 299 211 510t510 211q297 0 508 -211t211 -510q0 -297 -210 -508t-509 -211t-510 210t-211 509zM88 719q0 -262 184 -447q186 -186 449 -186q264 0 446 186q186 186 187 447q0 258 -187 448q-184 184 -446 185q-260 0 -449 -185q-184 -188 -184 -448zM145 719 q0 240 168 407.5t408 167.5q238 0 405.5 -168t167.5 -407q0 -238 -168 -406t-405 -168q-240 0 -408 168t-168 406zM252 612h936v213h-936v-213z" />
<glyph unicode="P" d="M0 721q0 297 211 508t510 211t509 -210t210 -509t-211 -510t-508 -211q-299 0 -510 211t-211 510zM88 721q0 -260 184 -449q188 -184 449 -184q262 0 446 184q186 186 187 449q0 264 -187 446q-182 186 -446 187q-262 0 -449 -187q-184 -184 -184 -446zM190 721 q0 -16 12.5 -28.5t28.5 -12.5h979q16 0 28.5 12.5t12.5 28.5t-12 28.5t-29 12.5h-979q-16 0 -28.5 -12.5t-12.5 -28.5zM307 852h55q37 0 58.5 20.5t21.5 57.5q0 76 -80 76h-55v-154zM344 885v90h16q41 0 41 -45t-41 -45h-16zM387 410h100v30h-61v31h47v31h-47v28h59v33h-98 v-153zM457 930q0 -35 23.5 -57.5t58 -22.5t57 22.5t22.5 57.5t-22.5 57.5t-57 22.5t-58 -22.5t-23.5 -57.5zM496 929.5q0 20.5 12 33t31 12.5q16 0 28.5 -12.5t12.5 -33t-12.5 -32.5t-28.5 -12q-18 0 -30.5 12t-12.5 32.5zM514 410h39v71l-2 27l14 -27l43 -71h37v153h-37 v-71v-27q-6 16 -12 27l-43 71h-39v-153zM664 530h47v-120h39v120h47v33h-133v-33zM694 852h37v72v26q6 -16 12 -26l43 -72h39v154h-39v-72l2 -27q-8 16 -12 27l-43 72h-39v-154zM815 410h100v30h-63v31h47v31h-47v28h59v33h-96v-153zM850 930q0 -35 23.5 -57.5t58.5 -22.5 t57.5 22.5t22.5 57.5t-22.5 57.5t-57.5 22.5t-58.5 -22.5t-23.5 -57.5zM889 929.5q0 20.5 12 33t31 12.5q16 0 28.5 -12.5t12.5 -33t-12.5 -32.5t-28.5 -12q-18 0 -30.5 12t-12.5 32.5zM942 410h37v51h18l29 -51h41l-31 53l-4 8v2q23 10 23 41q0 35 -29 45q-12 4 -31 4h-53 v-153zM979 494v36h14q23 0 23 -18t-21 -18h-16zM1020 975h47v-123h39v123h47v31h-133v-31z" />
<glyph unicode="Q" d="M0 719q0 297 211 509t510 212q297 0 508 -211t211 -510q0 -297 -210 -508t-509 -211t-510 211t-211 508zM88 719q0 -262 184 -447q186 -186 449 -186q264 0 446 186q186 186 186.5 446.5t-186.5 446.5q-182 186 -446 187q-262 0 -449 -187q-184 -184 -184 -446zM475 1110 q10 10 29.5 25.5t83 42t133.5 26.5q117 0 202 -67.5t85 -180.5q0 -59 -23.5 -107t-57.5 -80t-68 -59.5t-57.5 -61.5t-23.5 -73v-51h-162v62q0 63 34 116.5t75 83t75 70.5t34 86t-37 77t-90 32q-33 0 -68 -13.5t-53 -27.5l-19 -15zM616 254v156h162v-156h-162z" />
<glyph unicode="R" d="M-51 510v156h938l-400 399l113 111l588 -588l-588 -588l-113 113l400 397h-938z" />
<glyph unicode="S" d="M248 571v129h809v-129h-809zM674 1106q0 37 16 68q18 35 53 53q25 10 56 12h4v-43h-2l-2 -2q-23 0 -37 -8q-12 -6 -25 -21q-20 -23 -20 -59q0 -33 24 -57q29 -29 74 -29h8q14 0 21 -10q8 -10 0 -23q-10 -16 -10 -35q0 -25 16 -45q14 -18 41 -18h117q39 0 67.5 -16.5 t40.5 -47.5q8 -25 8 -43v-59h-45v59q0 20 -4 27q-2 12 -12 18q-18 18 -55 19h-117q-45 0 -76 35q-25 31 -24 71q0 8 4 25q-53 6 -84 41q-37 37 -37 88zM840 1153v43h4q61 0 106 -41q41 -41 41 -100q0 -35 -14 -64h33q84 0 133 -59q49 -55 49 -129v-80h-45v80q0 61 -37 100 q-39 45 -100 45h-70q-12 0 -18 13q-8 12 2 22q25 33 24 72q0 41 -28 69q-33 29 -76 29h-4zM1079 571v131h45v-131h-45zM1149 571v131h43v-131h-43z" />
<glyph unicode="T" d="M0 721q0 299 211 509t508 210q299 0 510 -211t211 -508q0 -299 -212 -510t-509 -211t-508 211t-211 510zM86 721q0 -262 186 -449q184 -184 447 -184q260 0 448 184q184 188 185 449q0 262 -185 446q-186 186 -448 187q-264 0 -447 -187q-186 -182 -186 -446zM188 594 q0 16 12.5 28.5t28.5 12.5h224v201q2 35 35.5 60.5t80.5 25.5h301q45 0 78 -22.5t37 -57.5h2v-207h223q16 0 28.5 -12.5t12.5 -28.5t-12 -28.5t-29 -12.5h-981q-16 0 -28.5 12.5t-12.5 28.5zM551 635h20v104h-20v-104zM600 1059q0 49 35 84t84 35t83 -35t34 -84t-34 -84 t-83 -35t-84 35t-35 84zM866 635h23v104h-23v-104z" />
<glyph unicode="U" d="M-51 600l588 588l587 -588l-110 -111l-400 398v-938h-155v938l-398 -398z" />
<glyph unicode="W" d="M7 23q-6 9 -5 20q0 16 10 35l785 1331q18 33 44.5 33t45.5 -33l782 -1331q12 -20 13 -36q0 -10 -6 -19q-13 -23 -50 -23h-1569q-37 0 -50 23zM121 88h1442l-721 1227zM764 156v626h156v-626h-156zM764 889v137h154v-137h-154z" />
<glyph unicode="X" d="M0 0v831h158v-563l663 664l111 -111l-664 -661h563v-160h-831z" />
<glyph unicode="Y" d="M-102 821l110 111l664 -664v566l157 -3v-831h-831v160h563z" />
<glyph unicode="a" d="M0 711l41 16l-8 25l33 12l-9 20l834 310l94 -254l-295 -111l2 -2q10 -37 -24 -51l-25 -8l68 -183q4 2 14 2q29 0 49.5 -19t22.5 -48h313v29q0 16 11.5 28t27.5 12h18v125h88v-426h-88v125h-18q-14 0 -26.5 11.5t-12.5 27.5v33h-319q-20 -43 -66 -43q-29 0 -50.5 21.5 t-21.5 52.5q0 35 27 55l-70 184l-32 -12q-10 -4 -19 -4q-22 0 -33 27v4l-315 -119q-8 25 -32.5 36t-47.5 1l-12 33l-33 -13l-8 25l-43 -17z" />
<glyph unicode="b" d="M2 905v101q0 4 1 8t11.5 12t30.5 8h215h146l79 301q10 20 25 33q10 8 35.5 14.5t55.5 9.5t68 4t64.5 1t55 -1t30.5 -1v-72h-223q-29 0 -43 -14l-72 -275h197q45 0 45 -28v-101h-721zM23 885h677l-57 -275q-158 -43 -203 -137q-14 -14 -14 -37v-28q0 -14 8 -31 q-10 -16 -10 -33v-14q0 -18 12 -35q-12 -18 -12 -43v-27q0 -25 12 -41q-10 -16 -10 -34v-17q0 -31 10 -43h-289zM459 225v27q0 37 35 37h796q16 0 26.5 -11.5t10.5 -25.5v-27q0 -16 -10 -26.5t-27 -10.5h-796q-35 0 -35 37zM459 330v14q0 23 35 23h796q12 0 19 -2 q18 -12 18 -21v-14q0 -25 -37 -25h-796q-35 0 -35 25zM461 121v2v8v19q0 25 24 24h818q8 0 16 -7t8 -17v-19v-8v-2q0 -16 -17.5 -34.5t-84 -37t-170.5 -18.5h-322q-104 0 -169.5 17.5t-84 36t-18.5 36.5zM461 408v28q0 10 8 19q68 145 405 145q106 0 191.5 -13.5 t132.5 -32.5t78 -43t41 -42t10 -33v-28q0 -10 -8 -17.5t-16 -7.5h-818q-24 0 -24 25zM481 225q0 -12 13 -12h796q12 0 13 12v27q0 12 -13 12h-796q-12 0 -13 -12v-27zM481 332q4 -2 13 -2h796q4 0 8 2h5v8l-13 4h-796q-8 0 -13 -4v-8z" />
<glyph unicode="c" d="M0 0v102h1139v-102h-1139zM150 309v641h780v-641q0 -59 -41 -100t-101 -41h-497q-57 0 -99 41t-42 100zM975 664v288h41h8q59 0 102 -43t43 -102t-43 -101t-102 -42h-8h-41z" />
<glyph unicode="d" horiz-adv-x="1331" d="M0 459q0 215 164 352l10 -63v-3q-119 -119 -119 -286q0 -170 119 -285q119 -119 285 -119q152 0 266 103l25 -54q-127 -104 -291 -104q-190 0 -324.5 135.5t-134.5 323.5zM215 1143q0 49 34 84t83 35t84 -35t35 -84t-35 -84t-84 -35t-83 35t-34 84zM238 946q0 14 49 21 l112 14q13 1 23 1q29 0 29 -9l8 -119h215q12 0 21.5 -9t9.5 -24v-43q2 -14 -7.5 -23.5t-23.5 -9.5h-207l12 -178h209q6 0 31 -4q45 -12 72 -47q0 -4 4 -8t4 -8q8 -14 10 -27l90 -280l96 32q6 2 13.5 -6t11.5 -20l12 -41q5 -13 5 -22q0 -11 -9 -13l-102 -33q-12 -4 -21 -8 q-27 -8 -51 -8q-35 0 -55 20q-4 4 -11 17l-2 6l-106 317h-309q-37 0 -56 12q-25 14 -36 41q-4 10 -11 31l-2 10z" />
<glyph unicode="e" d="M0 117v1208q0 47 34 81t81 34h1181q47 0 82 -34t35 -81v-1208q0 -47 -35 -82t-82 -35h-1181q-47 0 -81 35t-34 82zM86 88h1239v1266h-1239v-1266zM176 756v256q2 18 19.5 31.5t42.5 13.5h153q23 0 39 -13q8 -8 12 -10q8 -12 9 -18v-8h-52q-29 0 -49 -17q-23 -18 -22 -39 v-164h-88v175h-13v-207q0 -14 -14 -15h-20q-17 1 -17 15zM240 399v379h88v-114q0 -23 20 -23h25q10 0 16 10v-252q0 -16 -14 -16h-33q-16 0 -16 16v332h-25v-332q0 -16 -14 -16h-33q-14 0 -14 16zM252 1136.5q0 24.5 18.5 43t43 18.5t43 -18.5t18.5 -43t-18.5 -43t-43 -18.5 t-43 18.5t-18.5 43zM332 664v288q2 20 21.5 34.5t45.5 14.5h174q27 0 45.5 -13t22.5 -32v-292q0 -16 -16 -17h-23q-18 0 -18 17v233h-13v-197h-170v197h-12v-233q0 -16 -16 -17h-25q-16 1 -16 17zM401 260v428h170v-428q0 -16 -16 -16h-37q-18 0 -18 16v375h-27v-375 q0 -16 -16 -16h-39q-17 0 -17 16zM418 1093.5q0 28.5 20.5 48t49 19.5t48 -19.5t19.5 -48t-19.5 -49t-48 -20.5t-49 20.5t-20.5 49zM522 1008v4q0 14 13 26l2 2q20 16 45 17h155q23 0 39.5 -12.5t18.5 -28.5h2v-260q0 -14 -17 -15h-20q-14 0 -15 15v207h-10v-175h-88v168 l-2 2q-4 20 -24.5 35t-47.5 15h-51zM584 399v252q6 -10 18 -10h23q23 0 22 23v114h88v-379q0 -16 -16 -16h-33q-14 0 -14 16v332h-25v-332q0 -16 -16 -16h-33q-14 0 -14 16zM598 1136.5q0 24.5 17.5 43t41.5 18.5q27 0 44.5 -18.5t17.5 -43t-17.5 -43t-44.5 -18.5 q-25 0 -42 18.5t-17 43zM893 395l25 25l112 -113l8 -8v279h35v-279l8 8l113 113l25 -25l-162 -164l-29 29zM893 1026l164 162l26 -29l136 -133l-25 -25l-113 111l-8 10v-280h-35v280l-8 -10l-112 -111z" />
<glyph unicode="f" d="M0 0v1440h1440v-1440h-1440zM117 117h1208v1208h-1208v-1208zM338 749.5q0 155.5 111.5 267t267 111.5t266.5 -110.5t111 -267.5v-431l28 -28l-35 -131h-49l-34 131l28 28v226q-51 -80 -135 -126t-180 -46q-156 0 -267.5 110.5t-111.5 266zM397 749.5 q0 -131.5 94.5 -224.5t225.5 -93t224 93t93 225q0 133 -93 226t-224 93t-225.5 -94t-94.5 -225.5zM457 750q0 109 75.5 185.5t184 76.5t184.5 -77t76 -185q0 -106 -77 -183.5t-183.5 -77.5t-183 77.5t-76.5 183.5zM514 750q0 -84 59.5 -142.5t143.5 -58.5q82 0 141.5 59.5 t59.5 141.5q0 84 -58.5 143t-142.5 59t-143.5 -59t-59.5 -143zM573 749.5q0 59.5 42 101.5t101.5 42t101.5 -42t42 -101q0 -57 -43 -100.5t-100 -43.5q-59 0 -101.5 42t-42.5 101.5zM631 749.5q0 -34.5 25.5 -59t60.5 -24.5t59.5 24.5t24.5 59t-24.5 60.5t-59.5 26 t-60.5 -26t-25.5 -60.5z" />
<glyph unicode="g" d="M2 379v643h1208v-643h-1208zM55 432h1102v512l-549 -450l-553 460v-522zM96 969l512 -426l522 426h-1034z" />
<glyph unicode="h" d="M0 719q0 299 211 510t508 211t509 -212t212 -509t-211 -508t-510 -211q-297 0 -508 211t-211 508zM86 719q0 -260 186 -447q182 -186 447 -186q262 0 448 186q184 184 185 447q0 260 -185 448q-188 184 -448 185q-262 0 -447 -185q-186 -190 -186 -448zM375 330v319 q0 31 21.5 51.5t47.5 20.5h52v-461h-52q-29 0 -49 18.5t-20 51.5zM446 1051q0 55 38 93t91 38q76 0 115 -66h260l45 -45q8 -10 0 -18l-55 -56l-33 33l-30 -33l-33 33l-31 -33l-31 33l-41 -41h-51q-37 -68 -115 -67q-53 0 -91 38t-38 91zM483 1052.5q0 -14.5 10.5 -24.5 t24.5 -10t25.5 10t11.5 25q0 16 -11.5 26.5t-25.5 10.5t-24.5 -11.5t-10.5 -26zM530 258v461h93v65q0 39 47 39h98q45 0 45 -39v-65h94v-461h-377zM940 260v461h51q27 0 47.5 -20.5t20.5 -51.5v-319q0 -33 -19.5 -51.5t-48.5 -18.5h-51z" />
<glyph unicode="i" d="M0 721q0 297 211 508t510 211t509 -210t210 -509t-210 -510t-509 -211t-510 211t-211 510zM88 721q0 -264 184 -449q188 -184 449 -184q262 0 446 184q186 182 187 449q0 264 -187 446q-186 186 -446 187q-258 0 -449 -187q-184 -184 -184 -446zM373 313v242h43v-242h-43 zM469 313v242h43l92 -141l19 -37h2q-2 23 -2 37v141h43v-242h-43l-93 140l-20 36q2 -25 2 -36v-140h-43zM672 649v393h98v-393h-98zM672 1108v88h96v-88h-96zM717 313v242h139v-39h-94v-67h80v-39h-80v-97h-45zM868 434q0 53 36 89t89.5 36t89 -36t35.5 -89t-35.5 -89 t-89 -36t-89.5 36t-36 89zM913 434q0 -37 22.5 -61.5t57.5 -24.5t57.5 24.5t22.5 61.5t-22.5 60.5t-57.5 23.5t-57.5 -23.5t-22.5 -60.5z" />
<glyph unicode="j" d="M0 393v416h393v393h418v-393h393v-416h-391v-393h-418v393h-395z" />
<glyph unicode="k" d="M0 895v90h281v-178h186v-178h186v-180h187v-179h186v-178h186v-92h-280v92v88h-187v90v88h-186v91v88h-186v92v88h-187v90v88h-186zM639 932v411v97h508v-97h-344l405 -405l-67 -68l-406 406v-344h-96z" />
<glyph unicode="l" d="M0 0h281v92v88h186v90v88h186v91v88h187v92v88h186v90v88h186v90h-280v-178h-187v-178h-186v-180h-186v-179h-187v-178h-186v-92zM4 938l406 405h-344v97h507v-97v-411h-96v344l-405 -406z" />
<glyph unicode="m" d="M0 895v90h281v-178h186v-178h186v-180h187v-179h186v-178h186v-92h-280v92v88h-187v90v88h-186v91v88h-186v92v88h-187v90v88h-186zM639 1372l68 68l407 -406v344h94v-411v-97h-506v97h345zM639 1374l68 68l405 -406v344h96v-411v-97h-508v97h344zM2077 895v90h280v-178 h187v-178h186v-180h186v-179h187v-178h186v-92h-280v92v88h-187v90v88h-186v91v88h-187v92v88h-186v90v88h-186z" />
<glyph unicode="n" d="M0 0h281v92v88h186v90v88h186v91v88h187v92v88h186v90v88h186v90h-280v-178h-187v-178h-186v-180h-186v-179h-187v-178h-186v-92zM4 870v97v411h96v-344l406 406l67 -68l-405 -405h344v-97h-508z" />
<glyph unicode="o" d="M0 721q0 299 211 509t508 210q299 0 510 -210t211 -509t-211 -510t-510 -211t-509 211t-210 510zM86 721q0 -262 186 -449q184 -184 447 -184q264 0 448.5 184.5t184.5 448.5q0 262 -185 446q-186 186 -448 187q-260 0 -446.5 -186.5t-186.5 -446.5zM249 836q0 1 5 0h4 q2 2 7 2h9h25h16h27q2 2 14 2h27h6q8 0 10 2h27h12h29l100 -191l-30.5 17.5l-30.5 17.5q-4 0 -8 -5t-6 -5q-4 -8 -17.5 -20.5t-19.5 -26t-4 -31.5q2 -4 22 -20q-10 -2 -31 -3h-53q-109 18 -117 99q-4 18 0 31q2 51 41 90q-10 8 -32 21q-32 18 -32 20zM279 604l12 -12 q45 -31 94 -33h53q8 2 51 2h91h22q16 0 23 2h80v-33v-24q2 -6 2 -21v-20v-84q4 -25 0 -51v-4h-29h-96q-6 -2 -21 -2h-22h-62h-13q-9 0 -9 2q-4 0 -9.5 3t-7.5 3q-2 2 -6 7t-6 7q-29 43 -75 130t-66 120l-2 2q-2 4 -4 6zM377 946l94 158q2 4 10 17.5t13.5 19.5t13.5 14 t18.5 12t24.5 7q2 2 7 2t5 -2q59 -6 107 -46q12 -8 14 -16q16 -18 33 -49q-119 -178 -150 -221zM571 1184q2 0 8.5 2t8.5 2h14h6q2 2 7 2h8h51h45h86h18h6h7q6 0 6 -2q8 0 24 -2l25 -3q8 -1 18.5 -4t16.5 -12q2 -4 6 -14t6 -12q2 -4 19.5 -32t25.5 -44q14 6 34.5 19.5 t31.5 19.5q-14 -37 -45 -105.5t-43 -99.5q-27 2 -72 6t-83 7t-71 6q10 8 31.5 20l28.5 16q-76 131 -101 168l-18 19q-48 41 -105 43zM764 434l113 182q4 4 4 0v-30q0 -20 -2 -31v-10h8q6 2 19 2h22h82h47q2 0 5 1t7 1q76 20 119 86q-2 -14 -21 -47q-8 -20 -14 -29 q-4 -6 -11 -19.5l-9 -17.5q-16 -41 -33 -69q-20 -49 -56 -95q-6 -10 -16 -16q-16 -12 -29 -14h-14q-10 0 -16 -2h-51h-37v-76q-2 0 -2 2zM885 795l90 54q66 40 104 60l82 -153q25 -45 29 -58q2 -2 2 -10t-2 -10q-2 -31 -29 -57q-2 -2 -4 -5.5t-4 -5.5t-7 -6t-9 -6 q-14 -14 -43 -27q-35 -15 -49 -15q-3 0 -5 1q-2 0 -22 29z" />
<glyph unicode="p" d="M0 721q0 299 211 509t508 210q299 0 510 -211t211 -508q0 -299 -212 -510t-509 -211t-508 211t-211 510zM86 721q0 -262 186 -449q184 -184 447 -184q260 0 448 184q184 188 185 449q0 262 -185 446q-186 186 -448 187q-264 0 -447 -187q-186 -182 -186 -446zM188 721 q0 -16 12.5 -28.5t28.5 -12.5h979q16 0 28.5 12.5t12.5 28.5t-12 28.5t-29 12.5h-979q-16 0 -28.5 -12.5t-12.5 -28.5zM410 872q20 -23 57 -22q25 0 40 14.5t15 32.5q0 29 -34.5 44t-34.5 22q0 12 16 12q18 0 33 -14l16 30q-16 18 -49 19q-25 0 -40 -13.5t-15 -33.5 q0 -29 34.5 -44.5t34.5 -21.5q0 -12 -16 -12q-18 0 -37 16zM430 487q0 -35 23.5 -58t56.5 -23q35 0 58.5 23.5t23.5 57.5q0 33 -23.5 55.5t-58.5 22.5q-33 0 -56.5 -22.5t-23.5 -55.5zM469 487q0 18 12.5 30.5t28.5 12.5q18 0 30.5 -12t12.5 -31q0 -20 -12.5 -33.5 t-30.5 -13.5q-16 0 -28.5 13.5t-12.5 33.5zM530 975h48v-123h36v123h48v31h-132v-31zM616 410h39v71l-2 27q8 -16 15 -27l43 -71h37v153h-37v-71l2 -27h-2q-6 16 -13 27l-43 71h-39v-153zM653 852h39l10 33h48l10 -33h39l-54 154h-38zM711 915l8 29l6 27q4 -16 8 -27l8 -29 h-30zM784 410h101v30h-64v123h-37v-153zM815 852h39v57h47v33h-47v33h55v31h-94v-154zM877 563l51 -92v-61h37v61l51 92h-43l-17 -37l-10 -22q-4 12 -10 22l-16 37h-43zM934 852h39v57h47v33h-47v33h55v31h-94v-154z" />
<glyph unicode="q" d="M0 721q0 297 211 508t510 211t509 -210t210 -509t-210 -510t-509 -211t-510 211t-211 510zM88 721q0 -264 184 -449q188 -184 449 -184q262 0 446 184q186 186 187 449q0 260 -186.5 446.5t-446.5 186.5q-258 0 -449 -187q-184 -184 -184 -446zM373 313v242h43v-242h-43z M467 313v242h45l90 -141l21 -37h2q-4 23 -4 37v141h45v-242h-45l-91 140l-20 36q2 -25 2 -36v-140h-45zM571 1141q51 53 142 53q68 0 116 -38t48 -103q0 -53 -33 -91t-66 -67t-33 -61v-31h-92v37q0 57 62.5 113.5t62.5 90.5q0 27 -21.5 44.5t-51.5 17.5q-18 0 -39 -8 t-31 -17l-10 -6zM653 649v88h92v-88h-92zM717 313v242h139v-39h-94v-67h80v-39h-80v-97h-45zM868 434q0 53 36 89t89 36q51 0 88 -36t37 -89t-37 -89t-88 -36q-53 0 -89 36t-36 89zM913 434q0 -37 22.5 -61.5t57.5 -24.5q33 0 56.5 24.5t23.5 61.5t-23.5 60.5t-56.5 23.5 q-35 0 -57.5 -23.5t-22.5 -60.5z" />
<glyph unicode="r" horiz-adv-x="1126" d="M0 977v434q0 18 14 26q7 3 13 3q7 0 15 -4q13 -8 13 -27v-322h45v326q0 16 14 24q7 4 13 3l13 -3q13 -7 14 -26v-324h47v324q0 18 12 26q6 4 12.5 3.5t13.5 -3.5q13 -7 13 -26v-324h47v324q0 18 13 26q7 4 14 3l13 -3q13 -7 13 -26v-440q0 -37 -28.5 -68t-69.5 -31v-788 q0 -53 -39 -74q-19 -10 -38.5 -10t-38.5 10q-38 20 -38 74v788q-41 0 -70.5 30t-29.5 75zM524 571v740q0 82 59 114q29 16 58 17l58 -17q58 -33 59 -114v-1225q0 -51 -38 -73q-19 -11 -38 -10l-38 10q-38 22 -38 73v485h-82z" />
<glyph unicode="s" horiz-adv-x="1433" d="M4 207l387 733q8 14 21 6q12 -6 6 -20l-389 -733q-6 -12 -21 -7q-6 4 -6 11q0 5 2 10zM199 84l288 829q4 16 19 9q16 -4 8 -19l-289 -829q-4 -16 -18 -8q-12 4 -8 18zM356 16l99 568q0 16 16 12q12 -2 12 -16l-98 -568q-3 -13 -12 -13q-2 0 -4 1q-17 4 -13 16zM369 987 v12q0 8 14 9h6q10 2 14 16q8 33 33 56.5t45 29.5l21 6h145q8 -2 21.5 -7t41 -28.5t35.5 -56.5q4 -14 15 -16h10q12 0 12 -9v-12q0 -10 -12 -10h-387q-14 0 -14 10zM494 1157v23q0 10 10 10l143 2q10 0 10 -12v-23q0 -12 -10 -12h-143q-10 0 -10 12zM502 1227v16q-1 10 -1 21 q0 63 44 108q43 51 127 51h260v-145h-260q-18 0 -19 -4q-6 -4 -6 -21v-2v-24h-145zM553 63l4 748q0 14 14.5 14t14.5 -14l-4 -748q0 -14 -15 -14q-18 0 -14 14zM629 905q-1 3 -1 5q0 7 9 14q14 4 20 -11l287 -829q10 -14 -8 -18q-14 -4 -18 8zM662 580q-4 16 12 16 q12 4 16 -10l96 -568q4 -14 -12 -18q-12 0 -16 12zM725 928q-1 4 -1 7q0 8 7 11q5 2 9 2q8 0 12 -8l389 -733q3 -4 3 -9q0 -7 -9 -12q-4 -1 -8 -1q-9 0 -13 8z" />
<glyph unicode="t" d="M-90 938l104 104q14 14 35 11l690 -181l316 316q27 29 67.5 29t67.5 -29t27 -68t-27 -67l-316 -316l179 -688q8 -20 -9 -37l-104 -104q-6 -6 -12 -6q-7 0 -13 10l-288 580l-246 -248l20 -140q4 -20 -12 -36l-67 -68q-14 -14 -25 4l-96 195l12 10l-2 2l-10 -12l-197 96 q-18 10 -4 24l70 70q12 12 34 12l142 -22l248 248l-580 286q-10 6 -10 13q0 6 6 12z" />
<glyph unicode="u" d="M2 621q-1 3 -1 4q0 6 9 6h68q10 0 14 -10l25 -138q-49 37 -90 99q-17 25 -25 39zM12 567q14 -23 29 -39q41 -47 82 -73l65 -357q4 -10 15 -10h133q8 0 12 10l72 371q43 31 108 102l-106 -561q0 -10 -12 -10h-283q-8 0 -12 10zM168 549q-6 4 -6 8t6 8l39 41q10 6 16 0 l41 -41q8 -8 0 -16l-41 -41q-6 -6 -16 0zM217 238v69q0 12 12 12h70q10 0 10 -12v-69q0 -10 -10 -11h-70q-12 1 -12 11zM254 817q-4 3 -4 6.5t4 7.5l35 35q8 8 16 0l35 -35q8 -8 0 -14l-35 -35q-8 -8 -16 0zM395 1008q-4 29 25 32l59 11l96 16l70 180q0 2 2 6v2 q12 23 18.5 32t23 17.5t38.5 8.5h299q43 0 76 -22.5t39 -57.5v-504q0 -29 -29 -29h-39q-31 0 -31 29v401h-20v-339h-295v339h-2l-16 7l-60 -146q-10 -14 -18 -14l-103 -16l-47 -9l-45 -8q-29 -4 -33 25zM424 500l25 121q0 10 12 10h67q12 0 9 -10v-9q-64 -77 -113 -112z M727 31v739h295v-739q0 -29 -31 -29h-63q-29 0 -29 29v649h-49v-649q0 -29 -29 -29h-65q-29 0 -29 29zM754 1470.5q0 49.5 34.5 84t84 34.5t84 -34.5t34.5 -84t-34.5 -84t-84 -34.5t-84 34.5t-34.5 84z" />
<glyph unicode="w" d="M0 399h104l50 -249l6 -44q2 18 8 44l61 249h78l62 -249l6 -44h2q0 18 4 44l55 249h101l-101 -399h-110l-50 201l-8 47h-2q0 -20 -6 -47l-51 -201h-111zM279 1012q0 143 96 245q96 100 229 101q145 0 230 -94q82 -94 81 -246q0 -57 -14 -107q-16 -53 -43 -94h-168l-10 47 q-20 -18 -47 -37q-25 -12 -62 -12q-59 0 -100 49q-39 47 -39 142q0 92 47 145q49 51 111 51q29 0 49 -6l41 -20v20h63v-334h91q14 25 20 74q6 43 6 80q0 131 -65 209q-66 80 -189 80q-119 0 -194 -86q-76 -84 -76 -207q0 -131 74 -213q74 -80 194 -80q18 0 68 4q25 2 65 14 v-57q-39 -8 -67 -10q-45 -4 -66 -4q-141 0 -233 96q-92 98 -92 250zM500 1008q0 -61 20 -99q20 -33 66 -32q23 0 49 10q29 16 45 31v204q-29 14 -41 17q-18 6 -39 6q-47 0 -72 -35q-28 -34 -28 -102zM596 0v399h98v-399h-98zM788 0v399h246v-84h-147v-84h121v-84h-121v-147 h-99zM1096 0v399h98v-399h-98z" />
<glyph unicode="x" d="M0 -2v831h831l-2 -157h-561l664 -664l-111 -110l-663 663v-563h-158z" />
<glyph unicode="y" d="M-102 8l663 664h-563v157h831v-831h-159l2 563l-664 -663z" />
<glyph unicode="&#xa9;" horiz-adv-x="2560" d="M0 889h82l47 -225l59 225h72l62 -225l47 225h82l-84 -326h-84l-58 209l-59 -209h-84zM31 10v326h162q55 0 83 -27q4 -2 15 -16q18 -23 18 -66q0 -37 -20 -63q-31 -47 -123 -47h-53v-107h-82zM31 1116v326h102q20 0 31 -2q66 0 106 -35q14 -10 27 -29q25 -37 25 -94 q0 -74 -37 -119q-25 -31 -74 -43q-18 -4 -53 -4h-127zM113 176h49q20 0 26 2q41 6 41 49q0 14 -10 31q-12 16 -55 16h-51v-98zM113 1182h24q51 0 74 16q29 23 29 80q0 45 -19 68q-10 14 -31 22q-16 4 -45 4h-32v-190zM340 10v326h82v-258h127v-68h-209zM367 1116v326h239 v-64h-160v-59h150v-62h-150v-77h175v-64h-254zM459 727q0 61 30 104q45 68 132 68q70 0 114 -45q49 -49 49 -131q0 -86 -61 -135q-39 -35 -102 -35q-70 0 -115 47q-47 49 -47 127zM539 727q0 -53 28 -82q23 -23 54 -22q35 0 57 24q23 23 27 70q0 55 -23 82q-12 18 -31 24 q-14 6 -30 6q-12 0 -37 -8q-45 -24 -45 -94zM567 10l121 326h84l119 -326h-86l-17 51h-118l-17 -51h-86zM641 1176l61 38l15 -14q33 -29 80 -29q14 0 24 5q2 0 10.5 3t16.5 12t8 19q0 27 -59 33q-8 2 -13 2q-29 4 -47 8q-43 12 -61 35l-4 8q-6 8 -8 15q-4 12 -5 28 q0 14 3 23q2 29 26 53q37 33 103 33q61 0 106 -31l37 -28l-62 -43q-25 27 -53 34l-12 2q-10 2 -19 2q-49 0 -49 -34q0 -12 9 -17q8 -10 59 -16q14 -2 53 -10q53 -8 70 -52q8 -8 8 -34q0 -25 -14 -50q-27 -51 -103 -61q-4 0 -15 -1t-18 -1q-70 0 -122 39q-13 13 -25 29z M688 121h82l-41 137zM831 563v326h146q18 0 29 -2q63 0 92 -49q12 -31 12 -56q0 -43 -27 -65q-6 -8 -14 -12l-27 -13l76 -129h-90l-65 117h-50v-117h-82zM913 739h66q12 0 22 4q27 8 27 41q0 43 -47 43h-68v-88zM920 10v326h79l119 -205l-4 205h78v-326h-80l-117 201l2 -201 h-77zM981 1116v326h82v-326h-82zM1110 1278q0 109 80 154q31 20 80 20q66 0 114 -43q4 -4 29 -33l-61 -37l-9 11q-6 10 -12 16q-20 18 -55 18q-29 0 -45 -10q-41 -27 -41 -94q0 -51 22 -80q4 -6 15 -12l10 -6q25 -8 39 -8q16 0 29 4q23 8 34 30q4 6 7 21l2 6h-74v61h141 v-180h-63v29q-16 -12 -21 -15q-31 -23 -76 -22q-31 0 -61 14q-84 41 -84 156zM1157 563v326h76v-133l123 133h98l-115 -121l123 -205h-92l-86 148l-51 -54v-94h-76zM1249 10v76h72v-76h-72zM1350 172q0 70 39 117q45 57 116.5 57t116.5 -51l9 -13q5 -7 8 -13.5t6 -8.5 l-66 -31q-2 4 -6 10.5t-4 8.5q-23 31 -60 31q-29 0 -49 -19q-31 -35 -30 -86q0 -10 2 -20q8 -55 43 -76q16 -10 34 -10q41 0 68 45q4 2 4 4l64 -33q-8 -10 -17 -25q-2 -4 -4 -6q-47 -53 -119 -53q-35 0 -67 14q-88 41 -88 158zM1470 1116v326h80l119 -205l-4 205h78v-326 h-80l-119 201l4 -201h-78zM1661 174q0 57 31 105q51 68 131 67q66 0 116 -45q47 -51 48 -131q0 -86 -62 -135q-39 -35 -102 -35q-70 0 -115 47q-47 49 -47 127zM1743 174q0 -55 26 -82q23 -23 56 -22.5t55 24.5q23 23 27 70q0 51 -21 82q-20 20 -33 24q-14 6 -30 6 q-12 0 -37 -8q-43 -24 -43 -94zM2034 10v326h118l62 -227l59 227h119v-326h-78l6 262l-71 -262h-70l-74 262l9 -262h-80z" />
<glyph unicode="&#x2000;" horiz-adv-x="794" />
<glyph unicode="&#x2001;" horiz-adv-x="1589" />
<glyph unicode="&#x2002;" horiz-adv-x="794" />
<glyph unicode="&#x2003;" horiz-adv-x="1589" />
<glyph unicode="&#x2004;" horiz-adv-x="528" />
<glyph unicode="&#x2005;" horiz-adv-x="397" />
<glyph unicode="&#x2006;" horiz-adv-x="264" />
<glyph unicode="&#x2007;" horiz-adv-x="264" />
<glyph unicode="&#x2008;" horiz-adv-x="198" />
<glyph unicode="&#x2009;" horiz-adv-x="317" />
<glyph unicode="&#x200a;" horiz-adv-x="88" />
<glyph unicode="&#x2013;" horiz-adv-x="1024" d="M205 512v205h614v-205h-614z" />
<glyph unicode="&#x2014;" horiz-adv-x="2048" d="M205 512v205h1638v-205h-1638z" />
<glyph unicode="&#x202f;" horiz-adv-x="317" />
<glyph unicode="&#x205f;" horiz-adv-x="397" />
<glyph unicode="&#x2122;" horiz-adv-x="2832" d="M1706 725v500h2q2 35 36 60.5t79 25.5h303q45 0 77.5 -22.5t37.5 -57.5v-506q0 -10 -8.5 -19.5t-20.5 -9.5h-39q-12 0 -21.5 9.5t-9.5 19.5v403h-20v-340h-295v340h-23v-403q0 -10 -8 -19.5t-20 -9.5h-39q-12 0 -21.5 9.5t-9.5 19.5zM1827 29v739h295v-739 q0 -12 -9.5 -20.5t-19.5 -8.5h-65q-29 0 -29 29v647h-49v-647q0 -29 -29 -29h-65q-29 0 -29 29zM1853 1468.5q0 49.5 35 84t84 34.5t84 -34.5t35 -84t-35 -84t-84 -34.5t-84 34.5t-35 84zM0 721q0 299 211 509t508 210q299 0 510 -211t211 -508q0 -299 -212 -510t-509 -211 t-508 211t-211 510zM86 721q0 -262 186 -449q184 -184 447 -184q260 0 448 184q184 188 185 449q0 262 -185 446q-186 186 -448 187q-264 0 -447 -187q-186 -182 -186 -446zM188 594q0 16 12.5 28.5t28.5 12.5h224v201q2 35 35.5 60.5t80.5 25.5h301q45 0 78 -22.5t37 -57.5 h2v-207h223q16 0 28.5 -12.5t12.5 -28.5t-12 -28.5t-29 -12.5h-981q-16 0 -28.5 12.5t-12.5 28.5zM551 635h20v104h-20v-104zM600 1059q0 49 35 84t84 35t83 -35t34 -84t-34 -84t-83 -35t-84 35t-35 84zM866 635h23v104h-23v-104z" />
<glyph unicode="&#xe000;" horiz-adv-x="830" d="M0 830h830v-830h-830v830z" />
<glyph unicode="&#xfb01;" horiz-adv-x="3411" d="M1706 721q0 297 211 508t510 211t509 -210t210 -509t-210 -510t-509 -211t-510 211t-211 510zM1794 721q0 -264 184 -449q188 -184 449 -184q262 0 446 184q186 182 187 449q0 264 -187 446q-186 186 -446 187q-258 0 -449 -187q-184 -184 -184 -446zM2079 313v242h43 v-242h-43zM2175 313v242h43l92 -141l19 -37h2q-2 23 -2 37v141h43v-242h-43l-93 140l-20 36q2 -25 2 -36v-140h-43zM2378 649v393h98v-393h-98zM2378 1108v88h96v-88h-96zM2423 313v242h139v-39h-94v-67h80v-39h-80v-97h-45zM2574 434q0 53 36 89t89.5 36t89 -36t35.5 -89 t-35.5 -89t-89 -36t-89.5 36t-36 89zM2619 434q0 -37 22.5 -61.5t57.5 -24.5t57.5 24.5t22.5 61.5t-22.5 60.5t-57.5 23.5t-57.5 -23.5t-22.5 -60.5zM0 0v1440h1440v-1440h-1440zM117 117h1208v1208h-1208v-1208zM338 749.5q0 155.5 111.5 267t267 111.5t266.5 -110.5 t111 -267.5v-431l28 -28l-35 -131h-49l-34 131l28 28v226q-51 -80 -135 -126t-180 -46q-156 0 -267.5 110.5t-111.5 266zM397 749.5q0 -131.5 94.5 -224.5t225.5 -93t224 93t93 225q0 133 -93 226t-224 93t-225.5 -94t-94.5 -225.5zM457 750q0 109 75.5 185.5t184 76.5 t184.5 -77t76 -185q0 -106 -77 -183.5t-183.5 -77.5t-183 77.5t-76.5 183.5zM514 750q0 -84 59.5 -142.5t143.5 -58.5q82 0 141.5 59.5t59.5 141.5q0 84 -58.5 143t-142.5 59t-143.5 -59t-59.5 -143zM573 749.5q0 59.5 42 101.5t101.5 42t101.5 -42t42 -101 q0 -57 -43 -100.5t-100 -43.5q-59 0 -101.5 42t-42.5 101.5zM631 749.5q0 -34.5 25.5 -59t60.5 -24.5t59.5 24.5t24.5 59t-24.5 60.5t-59.5 26t-60.5 -26t-25.5 -60.5z" />
<glyph unicode="&#xfb02;" horiz-adv-x="3411" d="M1706 0h281v92v88h186v90v88h186v91v88h187v92v88h186v90v88h186v90h-280v-178h-187v-178h-186v-180h-186v-179h-187v-178h-186v-92zM1710 938l406 405h-344v97h507v-97v-411h-96v344l-405 -406zM0 0v1440h1440v-1440h-1440zM117 117h1208v1208h-1208v-1208zM338 749.5 q0 155.5 111.5 267t267 111.5t266.5 -110.5t111 -267.5v-431l28 -28l-35 -131h-49l-34 131l28 28v226q-51 -80 -135 -126t-180 -46q-156 0 -267.5 110.5t-111.5 266zM397 749.5q0 -131.5 94.5 -224.5t225.5 -93t224 93t93 225q0 133 -93 226t-224 93t-225.5 -94 t-94.5 -225.5zM457 750q0 109 75.5 185.5t184 76.5t184.5 -77t76 -185q0 -106 -77 -183.5t-183.5 -77.5t-183 77.5t-76.5 183.5zM514 750q0 -84 59.5 -142.5t143.5 -58.5q82 0 141.5 59.5t59.5 141.5q0 84 -58.5 143t-142.5 59t-143.5 -59t-59.5 -143zM573 749.5 q0 59.5 42 101.5t101.5 42t101.5 -42t42 -101q0 -57 -43 -100.5t-100 -43.5q-59 0 -101.5 42t-42.5 101.5zM631 749.5q0 -34.5 25.5 -59t60.5 -24.5t59.5 24.5t24.5 59t-24.5 60.5t-59.5 26t-60.5 -26t-25.5 -60.5z" />
<glyph unicode="&#xfb03;" horiz-adv-x="5117" d="M3412 721q0 297 211 508t510 211t509 -210t210 -509t-210 -510t-509 -211t-510 211t-211 510zM3500 721q0 -264 184 -449q188 -184 449 -184q262 0 446 184q186 182 187 449q0 264 -187 446q-186 186 -446 187q-258 0 -449 -187q-184 -184 -184 -446zM3785 313v242h43 v-242h-43zM3881 313v242h43l92 -141l19 -37h2q-2 23 -2 37v141h43v-242h-43l-93 140l-20 36q2 -25 2 -36v-140h-43zM4084 649v393h98v-393h-98zM4084 1108v88h96v-88h-96zM4129 313v242h139v-39h-94v-67h80v-39h-80v-97h-45zM4280 434q0 53 36 89t89.5 36t89 -36t35.5 -89 t-35.5 -89t-89 -36t-89.5 36t-36 89zM4325 434q0 -37 22.5 -61.5t57.5 -24.5t57.5 24.5t22.5 61.5t-22.5 60.5t-57.5 23.5t-57.5 -23.5t-22.5 -60.5zM1706 0v1440h1440v-1440h-1440zM1823 117h1208v1208h-1208v-1208zM2044 749.5q0 155.5 111.5 267t267 111.5t266.5 -110.5 t111 -267.5v-431l28 -28l-35 -131h-49l-34 131l28 28v226q-51 -80 -135 -126t-180 -46q-156 0 -267.5 110.5t-111.5 266zM2103 749.5q0 -131.5 94.5 -224.5t225.5 -93t224 93t93 225q0 133 -93 226t-224 93t-225.5 -94t-94.5 -225.5zM2163 750q0 109 75.5 185.5t184 76.5 t184.5 -77t76 -185q0 -106 -77 -183.5t-183.5 -77.5t-183 77.5t-76.5 183.5zM2220 750q0 -84 59.5 -142.5t143.5 -58.5q82 0 141.5 59.5t59.5 141.5q0 84 -58.5 143t-142.5 59t-143.5 -59t-59.5 -143zM2279 749.5q0 59.5 42 101.5t101.5 42t101.5 -42t42 -101 q0 -57 -43 -100.5t-100 -43.5q-59 0 -101.5 42t-42.5 101.5zM2337 749.5q0 -34.5 25.5 -59t60.5 -24.5t59.5 24.5t24.5 59t-24.5 60.5t-59.5 26t-60.5 -26t-25.5 -60.5zM0 0v1440h1440v-1440h-1440zM117 117h1208v1208h-1208v-1208zM338 749.5q0 155.5 111.5 267t267 111.5 t266.5 -110.5t111 -267.5v-431l28 -28l-35 -131h-49l-34 131l28 28v226q-51 -80 -135 -126t-180 -46q-156 0 -267.5 110.5t-111.5 266zM397 749.5q0 -131.5 94.5 -224.5t225.5 -93t224 93t93 225q0 133 -93 226t-224 93t-225.5 -94t-94.5 -225.5zM457 750q0 109 75.5 185.5 t184 76.5t184.5 -77t76 -185q0 -106 -77 -183.5t-183.5 -77.5t-183 77.5t-76.5 183.5zM514 750q0 -84 59.5 -142.5t143.5 -58.5q82 0 141.5 59.5t59.5 141.5q0 84 -58.5 143t-142.5 59t-143.5 -59t-59.5 -143zM573 749.5q0 59.5 42 101.5t101.5 42t101.5 -42t42 -101 q0 -57 -43 -100.5t-100 -43.5q-59 0 -101.5 42t-42.5 101.5zM631 749.5q0 -34.5 25.5 -59t60.5 -24.5t59.5 24.5t24.5 59t-24.5 60.5t-59.5 26t-60.5 -26t-25.5 -60.5z" />
<glyph unicode="&#xfb04;" horiz-adv-x="5117" d="M3412 0h281v92v88h186v90v88h186v91v88h187v92v88h186v90v88h186v90h-280v-178h-187v-178h-186v-180h-186v-179h-187v-178h-186v-92zM3416 938l406 405h-344v97h507v-97v-411h-96v344l-405 -406zM1706 0v1440h1440v-1440h-1440zM1823 117h1208v1208h-1208v-1208z M2044 749.5q0 155.5 111.5 267t267 111.5t266.5 -110.5t111 -267.5v-431l28 -28l-35 -131h-49l-34 131l28 28v226q-51 -80 -135 -126t-180 -46q-156 0 -267.5 110.5t-111.5 266zM2103 749.5q0 -131.5 94.5 -224.5t225.5 -93t224 93t93 225q0 133 -93 226t-224 93t-225.5 -94 t-94.5 -225.5zM2163 750q0 109 75.5 185.5t184 76.5t184.5 -77t76 -185q0 -106 -77 -183.5t-183.5 -77.5t-183 77.5t-76.5 183.5zM2220 750q0 -84 59.5 -142.5t143.5 -58.5q82 0 141.5 59.5t59.5 141.5q0 84 -58.5 143t-142.5 59t-143.5 -59t-59.5 -143zM2279 749.5 q0 59.5 42 101.5t101.5 42t101.5 -42t42 -101q0 -57 -43 -100.5t-100 -43.5q-59 0 -101.5 42t-42.5 101.5zM2337 749.5q0 -34.5 25.5 -59t60.5 -24.5t59.5 24.5t24.5 59t-24.5 60.5t-59.5 26t-60.5 -26t-25.5 -60.5zM0 0v1440h1440v-1440h-1440zM117 117h1208v1208h-1208 v-1208zM338 749.5q0 155.5 111.5 267t267 111.5t266.5 -110.5t111 -267.5v-431l28 -28l-35 -131h-49l-34 131l28 28v226q-51 -80 -135 -126t-180 -46q-156 0 -267.5 110.5t-111.5 266zM397 749.5q0 -131.5 94.5 -224.5t225.5 -93t224 93t93 225q0 133 -93 226t-224 93 t-225.5 -94t-94.5 -225.5zM457 750q0 109 75.5 185.5t184 76.5t184.5 -77t76 -185q0 -106 -77 -183.5t-183.5 -77.5t-183 77.5t-76.5 183.5zM514 750q0 -84 59.5 -142.5t143.5 -58.5q82 0 141.5 59.5t59.5 141.5q0 84 -58.5 143t-142.5 59t-143.5 -59t-59.5 -143zM573 749.5 q0 59.5 42 101.5t101.5 42t101.5 -42t42 -101q0 -57 -43 -100.5t-100 -43.5q-59 0 -101.5 42t-42.5 101.5zM631 749.5q0 -34.5 25.5 -59t60.5 -24.5t59.5 24.5t24.5 59t-24.5 60.5t-59.5 26t-60.5 -26t-25.5 -60.5z" />
</font>
</defs>
</svg>
